# File created by Blade
# Date/Time:  Tue Jan 27 19:18:41 2015
# Frame Rate: 120.000 fps
#------------------------------------------------------
:FULLY-SPECIFIED
:DEGREES
1687
root 3.878409 32.325692 0.933493 -3.781059 -1.533642 0.201058
Spine -0.681959 8.426666 1.371858
Head 6.071462 -15.924707 -7.597170
LeftShoulder -5.530463 -7.267029 23.015793
LeftArm -4.925558 44.697258 -102.813212
LeftForeArm 3.343095 -0.000000 17.876379
LeftHand 10.424923 -0.000000 -5.252459
LeftHandThumb1 -26.253704 0.000000 33.147579
RightShoulder -9.645016 2.970045 -39.277578
RightArm 21.666984 69.456163 53.170051
RightForeArm 20.921593 -0.000000 106.561306
RightHand 30.819435 0.000000 -27.988489
RightHandThumb1 -24.326973 -0.000000 -32.862282
LeftUpLeg 10.367551 -0.050044 -0.565885
LeftLeg 2.768123 -0.000000 -0.000000
LeftFoot -19.270161 14.487269 -23.794536
LeftToeBase 16.597645 -0.000000 -0.000000
RightUpLeg 8.995899 -6.939460 1.500018
RightLeg 0.586115 -0.000000 -0.000000
RightFoot -12.074652 -13.163186 13.661598
RightToeBase 10.390666 -0.000000 -0.000000
1688
root 3.874792 32.325788 0.925335 -3.782001 -1.549931 0.200756
Spine -0.657280 8.466990 1.368033
Head 6.069166 -15.942893 -7.602886
LeftShoulder -5.536374 -7.261222 23.011265
LeftArm -4.930133 44.644073 -102.791348
LeftForeArm 3.304044 -0.000000 17.916642
LeftHand 10.389740 0.000000 -5.195793
LeftHandThumb1 -26.253704 0.000000 33.147579
RightShoulder -9.595682 3.042625 -39.268128
RightArm 21.859076 69.460713 53.414598
RightForeArm 20.842839 -0.000000 106.567468
RightHand 30.774962 -0.000000 -27.902071
RightHandThumb1 -24.326973 -0.000000 -32.862282
LeftUpLeg 10.354160 -0.092134 -0.569995
LeftLeg 2.773687 -0.000000 -0.000000
LeftFoot -19.291946 14.536293 -23.817174
LeftToeBase 16.660516 -0.000000 -0.000000
RightUpLeg 8.971464 -6.939169 1.507557
RightLeg 0.605192 -0.000000 -0.000000
RightFoot -12.086205 -13.149989 13.675243
RightToeBase 10.477579 -0.000000 -0.000000
1689
root 3.870329 32.325914 0.916818 -3.770541 -1.556452 0.195793
Spine -0.645302 8.504324 1.363632
Head 6.066899 -15.951256 -7.604872
LeftShoulder -5.542266 -7.229501 23.007819
LeftArm -4.884146 44.622100 -102.741442
LeftForeArm 3.313480 -0.000000 17.928584
LeftHand 10.361981 -0.000000 -5.162383
LeftHandThumb1 -26.253704 0.000000 33.147579
RightShoulder -9.559663 3.056627 -39.253274
RightArm 22.110147 69.466883 53.707705
RightForeArm 20.788739 -0.000000 106.597209
RightHand 30.748065 0.000000 -27.940690
RightHandThumb1 -24.326973 -0.000000 -32.862282
LeftUpLeg 10.323433 -0.095007 -0.555399
LeftLeg 2.785034 -0.000000 -0.000000
LeftFoot -19.300914 14.521202 -23.853748
LeftToeBase 16.576083 -0.000000 -0.000000
RightUpLeg 8.955660 -6.944863 1.521209
RightLeg 0.558456 -0.000000 -0.000000
RightFoot -11.922688 -13.130530 13.471662
RightToeBase 9.791527 -0.000000 -0.000000
1690
root 3.866768 32.326445 0.910420 -3.771095 -1.569636 0.196750
Spine -0.622580 8.558335 1.357086
Head 6.064219 -15.959088 -7.609368
LeftShoulder -5.539941 -7.261334 23.007905
LeftArm -4.935543 44.582391 -102.751254
LeftForeArm 3.338998 -0.000000 17.953788
LeftHand 10.278223 -0.000000 -5.106280
LeftHandThumb1 -26.253704 0.000000 33.147579
RightShoulder -9.532513 3.085152 -39.233646
RightArm 22.386785 69.474793 54.014612
RightForeArm 20.733191 -0.000000 106.630958
RightHand 30.738198 -0.000000 -27.957814
RightHandThumb1 -24.326973 -0.000000 -32.862282
LeftUpLeg 10.313840 -0.108644 -0.553856
LeftLeg 2.786237 -0.000000 -0.000000
LeftFoot -19.296908 14.547322 -23.851036
LeftToeBase 16.611514 -0.000000 -0.000000
RightUpLeg 8.945596 -6.940733 1.526794
RightLeg 0.550821 -0.000000 -0.000000
RightFoot -11.894031 -13.121788 13.446918
RightToeBase 9.705270 -0.000000 -0.000000
1691
root 3.864371 32.326856 0.900818 -3.758552 -1.582133 0.193597
Spine -0.604148 8.614902 1.359946
Head 6.045394 -15.984357 -7.615295
LeftShoulder -5.540326 -7.206626 22.992543
LeftArm -4.855384 44.548364 -102.669836
LeftForeArm 3.409275 -0.000000 17.957339
LeftHand 10.292670 -0.000000 -5.180482
LeftHandThumb1 -26.253704 0.000000 33.147579
RightShoulder -9.510560 3.123107 -39.225771
RightArm 22.627201 69.482774 54.297469
RightForeArm 20.702790 -0.000000 106.675396
RightHand 30.740040 -0.000000 -28.005643
RightHandThumb1 -24.326973 -0.000000 -32.862282
LeftUpLeg 10.273830 -0.104794 -0.545968
LeftLeg 2.810021 -0.000000 -0.000000
LeftFoot -19.306523 14.546724 -23.870594
LeftToeBase 16.585193 -0.000000 -0.000000
RightUpLeg 8.907610 -6.918879 1.541232
RightLeg 0.562599 -0.000000 -0.000000
RightFoot -11.895899 -13.131476 13.444848
RightToeBase 9.794598 -0.000000 -0.000000
